<svg xmlns="http://www.w3.org/2000/svg" width="112" height="30" viewBox="0 0 112 30" fill="none"><path fill="#fff" d="m97.4 30 2.672-6.786L93.593 6.97h5.22l3.869 9.703 3.839-9.703h5.189L102.59 30H97.4ZM81.67 24.473V14.34c0-2.518.676-4.453 2.027-5.804 1.372-1.35 3.326-2.026 5.865-2.026.266 0 .686.02 1.259.061.573.02 1.146.092 1.72.215v4.268a28.26 28.26 0 0 0-1.106-.153 6.736 6.736 0 0 0-1.167-.092c-.634 0-1.228.092-1.78.276-.553.184-1.004.532-1.352 1.044-.327.512-.491 1.259-.491 2.242v10.102H81.67ZM69.212 24.933c-1.556 0-2.938-.399-4.146-1.197-1.187-.798-2.118-1.904-2.794-3.316-.675-1.413-1.013-3.03-1.013-4.852 0-1.78.327-3.347.982-4.698.656-1.371 1.556-2.436 2.703-3.193 1.146-.778 2.466-1.167 3.96-1.167 1.147 0 2.16.225 3.04.675.901.43 1.628 1.034 2.18 1.812l.277-2.027h4.115v17.503H74.4l-.276-2.303a5.822 5.822 0 0 1-2.088 2.027 5.595 5.595 0 0 1-2.825.736Zm.89-4.36c1.147 0 2.057-.45 2.733-1.35.676-.902 1.013-2.12 1.013-3.655 0-1.535-.337-2.743-1.013-3.623-.675-.9-1.586-1.351-2.733-1.351-1.167 0-2.088.45-2.763 1.35-.676.881-1.014 2.089-1.014 3.624 0 1.535.338 2.753 1.014 3.654.675.9 1.596 1.351 2.763 1.351ZM55.621 24.473c-1.433 0-2.59-.43-3.47-1.29-.86-.88-1.29-2.037-1.29-3.47v-8.75h-2.886V6.97h2.886V2.364h4.975V6.97h3.562v3.992h-3.562v7.892c0 .389.123.706.368.952.246.245.553.368.922.368h2.794v4.299H55.62ZM42.863 5.067c-.798 0-1.474-.236-2.027-.707-.532-.47-.798-1.085-.798-1.842 0-.737.266-1.34.798-1.812C41.39.236 42.065 0 42.863 0c.778 0 1.433.235 1.965.706.553.471.83 1.075.83 1.812 0 .757-.277 1.371-.83 1.842-.532.471-1.187.707-1.965.707Zm-2.487 19.406V6.97h4.974v17.503h-4.974ZM21.333 24.473V14.186c0-1.576.317-2.937.952-4.084a6.613 6.613 0 0 1 2.764-2.64c1.187-.635 2.589-.952 4.206-.952 1.617 0 3.02.317 4.207.952a6.421 6.421 0 0 1 2.733 2.64c.655 1.147.982 2.508.982 4.084v10.287h-4.974V14.248c0-1.106-.276-1.955-.83-2.549-.531-.594-1.238-.89-2.118-.89-.86 0-1.566.296-2.118.89-.553.594-.83 1.443-.83 2.549v10.225h-4.974ZM9.222 25.15c-1.833 0-3.446-.352-4.84-1.059-1.375-.725-2.454-1.737-3.236-3.036C.382 19.738 0 18.191 0 16.415V3.241h5.04v13.174c0 1.356.373 2.435 1.118 3.237.744.802 1.747 1.203 3.007 1.203 1.298 0 2.32-.401 3.065-1.203.744-.802 1.117-1.88 1.117-3.237V3.241h5.04v13.174c0 1.776-.391 3.323-1.174 4.64-.764 1.299-1.833 2.31-3.208 3.036-1.375.707-2.969 1.06-4.783 1.06Z"/><path fill="#fff" d="M7.9 3.277h2.964v13.888c-.144 1.73-2.82 1.73-2.963 0V3.277Z"/></svg>