<svg xmlns="http://www.w3.org/2000/svg" width="253" height="315" viewBox="0 0 253 315" fill="none"><path fill="url(#a)" d="M127.107 205.861c-7.377 0-13.87-1.422-19.48-4.265-5.533-2.92-9.874-6.993-13.025-12.219-3.074-5.302-4.61-11.526-4.61-18.673v-53.022h20.286v53.022c0 5.456 1.499 9.798 4.496 13.025 2.996 3.228 7.031 4.842 12.103 4.842 5.225 0 9.336-1.614 12.333-4.842 2.997-3.227 4.495-7.569 4.495-13.025v-53.022h20.287v53.022c0 7.147-1.575 13.371-4.726 18.673-3.073 5.226-7.377 9.299-12.909 12.219-5.533 2.843-11.95 4.265-19.25 4.265Z"/><path fill="url(#b)" d="M121.789 117.829h11.924v55.892c-.579 6.959-11.346 6.959-11.924 0v-55.892Z"/><path fill="url(#c)" d="M200.75 157.485c0-41.099-33.317-74.416-74.416-74.416-41.1 0-74.417 33.317-74.417 74.416 0 41.1 33.317 74.417 74.417 74.417v6.922c-44.923 0-81.34-36.416-81.34-81.339 0-44.922 36.417-81.339 81.34-81.339 44.922 0 81.339 36.417 81.339 81.339 0 44.923-36.417 81.339-81.339 81.339v-6.922c41.099 0 74.416-33.317 74.416-74.417Z"/><path fill="url(#d)" d="M230.172 157.486c0-57.347-46.49-103.836-103.837-103.836-57.348 0-103.837 46.489-103.837 103.836 0 57.348 46.49 103.837 103.837 103.837v6.923c-61.171 0-110.76-49.589-110.76-110.76 0-61.17 49.589-110.759 110.76-110.759 61.17 0 110.759 49.589 110.759 110.759 0 61.171-49.589 110.76-110.759 110.76v-6.923c57.347 0 103.837-46.489 103.837-103.837Z"/><path fill="#60E2FD" d="M22.496 157.486c0 57.347 46.49 103.837 103.837 103.837 57.348 0 103.837-46.49 103.837-103.837h1.731c0 58.303-47.264 105.567-105.568 105.567-58.303 0-105.567-47.264-105.567-105.567h1.73Z"/><path fill="url(#e)" d="M127.2 231.902c-3.461 17.306-3.461 64.898 0 82.204 3.461-17.306 3.461-64.898 0-82.204Z"/><path fill="url(#f)" d="M127.2 0c-3.461 17.306-3.461 64.898 0 82.204 3.461-17.306 3.461-64.898 0-82.204Z"/><path fill="url(#g)" d="M251.765 78.158c-14.958 5.06-51.835 26.351-63.697 36.776 14.959-5.061 51.836-26.352 63.697-36.776Z"/><path fill="url(#h)" d="M251.765 236.077c-14.958-5.06-51.835-26.351-63.697-36.776 14.959 5.061 51.836 26.352 63.697 36.776Z"/><path fill="url(#i)" d="M1.161 78.159c11.862 10.424 48.74 31.715 63.698 36.775C52.997 104.51 16.119 83.219 1.16 78.159Z"/><path fill="url(#j)" d="M1.161 236.077c11.862-10.424 48.74-31.715 63.698-36.775-11.862 10.424-48.74 31.715-63.698 36.775Z"/><defs><linearGradient id="a" x1="126.992" x2="126.992" y1="117.682" y2="205.861" gradientUnits="userSpaceOnUse"><stop stop-color="#60E2FD"/><stop offset="1" stop-color="#54A9FF"/></linearGradient><linearGradient id="b" x1="127.751" x2="127.751" y1="117.829" y2="178.94" gradientUnits="userSpaceOnUse"><stop stop-color="#60E2FD"/><stop offset="1" stop-color="#54A9FF"/></linearGradient><linearGradient id="c" x1="126.334" x2="126.334" y1="76.147" y2="238.824" gradientUnits="userSpaceOnUse"><stop stop-color="#60E2FD"/><stop offset="1" stop-color="#54A9FF"/></linearGradient><linearGradient id="d" x1="126.335" x2="126.335" y1="46.727" y2="268.246" gradientUnits="userSpaceOnUse"><stop stop-color="#60E2FD"/><stop offset="1" stop-color="#54A9FF"/></linearGradient><linearGradient id="e" x1="127.2" x2="127.2" y1="231.902" y2="314.106" gradientUnits="userSpaceOnUse"><stop stop-color="#60E2FD"/><stop offset="1" stop-color="#54A9FF"/></linearGradient><linearGradient id="f" x1="127.2" x2="127.2" y1="0" y2="82.204" gradientUnits="userSpaceOnUse"><stop stop-color="#60E2FD"/><stop offset="1" stop-color="#54A9FF"/></linearGradient><linearGradient id="g" x1="251.765" x2="188.068" y1="78.158" y2="114.934" gradientUnits="userSpaceOnUse"><stop stop-color="#60E2FD"/><stop offset="1" stop-color="#54A9FF"/></linearGradient><linearGradient id="h" x1="251.765" x2="188.068" y1="236.077" y2="199.301" gradientUnits="userSpaceOnUse"><stop stop-color="#60E2FD"/><stop offset="1" stop-color="#54A9FF"/></linearGradient><linearGradient id="i" x1="1.161" x2="64.859" y1="78.159" y2="114.934" gradientUnits="userSpaceOnUse"><stop stop-color="#60E2FD"/><stop offset="1" stop-color="#54A9FF"/></linearGradient><linearGradient id="j" x1="1.161" x2="64.859" y1="236.077" y2="199.302" gradientUnits="userSpaceOnUse"><stop stop-color="#60E2FD"/><stop offset="1" stop-color="#54A9FF"/></linearGradient></defs></svg>