
<svg xmlns="http://www.w3.org/2000/svg" width="214" height="57" viewBox="0 0 214 57" fill="none"><path fill="url(#a)" d="m186.546 56.666 5.046-12.818-12.238-30.682h9.86l7.308 18.328 7.25-18.328h9.802l-17.226 43.5h-9.802Z"/><path fill="url(#b)" d="M156.834 46.226v-19.14c0-4.756 1.276-8.41 3.828-10.962 2.591-2.552 6.283-3.828 11.078-3.828.503 0 1.295.039 2.378.116 1.083.039 2.165.174 3.248.406v8.062a53.818 53.818 0 0 0-2.088-.29 12.738 12.738 0 0 0-2.204-.174c-1.199 0-2.32.174-3.364.522-1.044.348-1.895 1.006-2.552 1.972-.619.967-.928 2.378-.928 4.234v19.082h-9.396Z"/><path fill="url(#c)" d="M133.301 47.096c-2.939 0-5.549-.754-7.83-2.262-2.243-1.508-4.002-3.596-5.278-6.264-1.276-2.668-1.914-5.723-1.914-9.164 0-3.364.618-6.322 1.856-8.874 1.237-2.59 2.938-4.601 5.104-6.032 2.165-1.47 4.659-2.204 7.482-2.204 2.165 0 4.079.426 5.742 1.276 1.701.812 3.074 1.953 4.118 3.422l.522-3.828h7.772v33.06h-7.772l-.522-4.35c-1.006 1.624-2.32 2.9-3.944 3.828-1.624.928-3.403 1.392-5.336 1.392Zm1.682-8.236c2.165 0 3.886-.85 5.162-2.552 1.276-1.701 1.914-4.002 1.914-6.902 0-2.9-.638-5.181-1.914-6.844-1.276-1.701-2.997-2.552-5.162-2.552-2.204 0-3.944.85-5.22 2.552-1.276 1.663-1.914 3.944-1.914 6.844 0 2.9.638 5.2 1.914 6.902 1.276 1.702 3.016 2.552 5.22 2.552Z"/><path fill="url(#d)" d="M107.63 46.226c-2.706 0-4.891-.812-6.554-2.436-1.623-1.663-2.435-3.847-2.435-6.554v-16.53h-5.453v-7.54h5.453v-8.7h9.395v8.7h6.728v7.54h-6.728v14.906c0 .735.232 1.334.696 1.798.464.464 1.044.696 1.74.696h5.278v8.12h-8.12Z"/><path fill="url(#e)" d="M83.532 9.57c-1.508 0-2.784-.445-3.828-1.334-1.005-.89-1.508-2.05-1.508-3.48 0-1.392.503-2.533 1.508-3.422C80.748.444 82.024 0 83.532 0c1.47 0 2.707.445 3.712 1.334 1.044.89 1.566 2.03 1.566 3.422 0 1.43-.522 2.59-1.566 3.48-1.005.89-2.242 1.334-3.712 1.334Zm-4.698 36.656v-33.06h9.396v33.06h-9.396Z"/><path fill="url(#f)" d="M42.865 46.226v-19.43c0-2.977.6-5.549 1.798-7.714 1.237-2.165 2.977-3.828 5.22-4.988 2.242-1.198 4.891-1.798 7.946-1.798 3.054 0 5.703.6 7.946 1.798 2.242 1.16 3.963 2.823 5.162 4.988 1.237 2.165 1.856 4.737 1.856 7.714v19.43h-9.396V26.912c0-2.088-.522-3.692-1.566-4.814-1.006-1.121-2.34-1.682-4.002-1.682-1.624 0-2.958.56-4.002 1.682-1.044 1.122-1.566 2.726-1.566 4.814v19.314h-9.396Z"/><path fill="url(#g)" d="M18.676 47.096c-3.712 0-6.98-.715-9.802-2.146-2.784-1.47-4.969-3.519-6.554-6.148C.773 36.134 0 33.002 0 29.406V2.726h10.208v26.68c0 2.745.754 4.93 2.262 6.554 1.508 1.624 3.538 2.436 6.09 2.436 2.63 0 4.698-.812 6.206-2.436 1.508-1.624 2.262-3.809 2.262-6.554V2.726h10.208v26.68c0 3.596-.793 6.728-2.378 9.396-1.547 2.63-3.712 4.679-6.496 6.148-2.784 1.43-6.013 2.146-9.686 2.146Z"/><path fill="url(#h)" d="M16 2.8h6v28.124c-.291 3.501-5.709 3.501-6 0V2.8Z"/><defs><linearGradient id="a" x1="196.464" x2="196.464" y1="13.166" y2="56.666" gradientUnits="userSpaceOnUse"><stop stop-color="#60E2FD"/><stop offset="1" stop-color="#54A9FF"/></linearGradient><linearGradient id="b" x1="167.1" x2="167.1" y1="12.296" y2="46.226" gradientUnits="userSpaceOnUse"><stop stop-color="#60E2FD"/><stop offset="1" stop-color="#54A9FF"/></linearGradient><linearGradient id="c" x1="134.577" x2="134.577" y1="12.296" y2="47.096" gradientUnits="userSpaceOnUse"><stop stop-color="#60E2FD"/><stop offset="1" stop-color="#54A9FF"/></linearGradient><linearGradient id="d" x1="104.469" x2="104.469" y1="4.466" y2="46.226" gradientUnits="userSpaceOnUse"><stop stop-color="#60E2FD"/><stop offset="1" stop-color="#54A9FF"/></linearGradient><linearGradient id="e" x1="83.503" x2="83.503" y1="0" y2="46.226" gradientUnits="userSpaceOnUse"><stop stop-color="#60E2FD"/><stop offset="1" stop-color="#54A9FF"/></linearGradient><linearGradient id="f" x1="57.829" x2="57.829" y1="12.296" y2="46.226" gradientUnits="userSpaceOnUse"><stop stop-color="#60E2FD"/><stop offset="1" stop-color="#54A9FF"/></linearGradient><linearGradient id="g" x1="18.618" x2="18.618" y1="2.726" y2="47.096" gradientUnits="userSpaceOnUse"><stop stop-color="#60E2FD"/><stop offset="1" stop-color="#54A9FF"/></linearGradient><linearGradient id="h" x1="19" x2="19" y1="2.8" y2="33.55" gradientUnits="userSpaceOnUse"><stop stop-color="#60E2FD"/><stop offset="1" stop-color="#54A9FF"/></linearGradient></defs></svg>